<svg width="80" height="80" viewBox="0 0 80 80" fill="none" xmlns="http://www.w3.org/2000/svg">
  <rect width="80" height="80" rx="16" fill="#EEF2FF"/>
  
  <!-- Background universe -->
  <circle cx="40" cy="40" r="30" fill="url(#paint0_radial)"/>
  
  <!-- Grid world -->
  <g opacity="0.5">
    <path d="M20 30L60 30" stroke="white" stroke-width="1"/>
    <path d="M20 40L60 40" stroke="white" stroke-width="1"/>
    <path d="M20 50L60 50" stroke="white" stroke-width="1"/>
    <path d="M30 20L30 60" stroke="white" stroke-width="1"/>
    <path d="M40 20L40 60" stroke="white" stroke-width="1"/>
    <path d="M50 20L50 60" stroke="white" stroke-width="1"/>
  </g>
  
  <!-- 3D Elements -->
  <rect x="30" y="30" width="10" height="10" fill="#6366F1" stroke="white" stroke-width="1"/>
  <path d="M30 30L25 25" stroke="white" stroke-width="1"/>
  <path d="M40 30L45 25" stroke="white" stroke-width="1"/>
  <path d="M30 40L25 45" stroke="white" stroke-width="1"/>
  <path d="M40 40L45 45" stroke="white" stroke-width="1"/>
  <rect x="25" y="25" width="10" height="10" fill="#4F46E5" opacity="0.6" stroke="white" stroke-width="1"/>
  <rect x="45" y="45" width="10" height="10" fill="#A78BFA" stroke="white" stroke-width="1"/>
  <path d="M45 45L40 40" stroke="white" stroke-width="1"/>
  <path d="M55 45L60 40" stroke="white" stroke-width="1"/>
  <path d="M45 55L40 60" stroke="white" stroke-width="1"/>
  <path d="M55 55L60 60" stroke="white" stroke-width="1"/>
  <rect x="40" y="40" width="10" height="10" fill="#312E81" opacity="0.6" stroke="white" stroke-width="1"/>
  
  <!-- Avatar -->
  <circle cx="40" cy="25" r="5" fill="#4F46E5" stroke="white" stroke-width="1.5"/>
  <path d="M40 30V35" stroke="white" stroke-width="1.5"/>
  <path d="M35 33L45 33" stroke="white" stroke-width="1.5"/>
  
  <!-- Stars -->
  <circle cx="20" cy="20" r="1" fill="white"/>
  <circle cx="60" cy="20" r="1" fill="white"/>
  <circle cx="20" cy="60" r="1" fill="white"/>
  <circle cx="60" cy="60" r="1" fill="white"/>
  <circle cx="15" cy="40" r="1" fill="white"/>
  <circle cx="65" cy="40" r="1" fill="white"/>
  <circle cx="40" cy="15" r="1" fill="white"/>
  <circle cx="40" cy="65" r="1" fill="white"/>
  
  <defs>
    <radialGradient id="paint0_radial" cx="0" cy="0" r="1" gradientUnits="userSpaceOnUse" gradientTransform="translate(40 40) rotate(90) scale(30)">
      <stop stop-color="#4F46E5"/>
      <stop offset="1" stop-color="#312E81"/>
    </radialGradient>
  </defs>
</svg> 